<svg enable-background="new 0 0 477.867 477.867" viewBox="0 0 477.867 477.867" xmlns="http://www.w3.org/2000/svg"><path d="m392.533 0h-307.2c-47.105.056-85.277 38.228-85.333 85.333v307.2c.056 47.105 38.228 85.277 85.333 85.333h307.2c47.105-.056 85.277-38.228 85.333-85.333v-307.2c-.056-47.105-38.228-85.277-85.333-85.333zm51.2 392.533c0 28.277-22.923 51.2-51.2 51.2h-307.2c-28.277 0-51.2-22.923-51.2-51.2v-307.2c0-28.277 22.923-51.2 51.2-51.2h307.2c28.277 0 51.2 22.923 51.2 51.2z"/><path d="m324.267 221.867h-68.267v-68.267c0-9.426-7.641-17.067-17.067-17.067s-17.067 7.641-17.067 17.067v68.267h-68.266c-9.426 0-17.067 7.641-17.067 17.067s7.641 17.066 17.067 17.066h68.267v68.267c0 9.426 7.641 17.067 17.067 17.067s17.066-7.642 17.066-17.067v-68.267h68.267c9.426 0 17.067-7.641 17.067-17.067s-7.642-17.066-17.067-17.066z"/></svg>