<svg enable-background="new 0 0 30.262 30.262" viewBox="0 0 30.262 30.262" xmlns="http://www.w3.org/2000/svg"><path d="m15.131.002c-8.358 0-15.131 6.775-15.131 15.128 0 8.358 6.773 15.13 15.131 15.13s15.131-6.771 15.131-15.13c0-8.353-6.774-15.128-15.131-15.128zm-2.272 24.146c-.34.336-.887.336-1.223 0l-.271-.271-.295-.293-1.266-1.266-.02-.029-5.807-5.851c-.338-.336-.338-.887 0-1.22l1.83-1.83c.34-.339.883-.339 1.221 0l5.225 5.262 10.98-10.982c.336-.337.883-.337 1.219 0l1.83 1.832c.338.336.338.885 0 1.221z" fill="#030104"/></svg>